#N canvas 126 146 511 475 10;
#X obj 57 57 inlet~;
#X obj 113 122 snapshot~;
#X obj 57 268 s~ \$2-ks\$1-sig;
#X obj 113 57 r \$2-mc-coeffs;
#X obj 57 246 +~;
#X obj 72 225 spigot 0;
#X obj 187 209 == 0;
#X obj 113 144 s \$2-kr\$1;
#X obj 72 204 r \$2-ks\$1;
#X obj 113 101 metro 20;
#X connect 0 0 1 0;
#X connect 0 0 4 0;
#X connect 1 0 7 0;
#X connect 3 0 6 0;
#X connect 3 0 9 0;
#X connect 4 0 2 0;
#X connect 5 0 4 1;
#X connect 6 0 5 1;
#X connect 8 0 5 0;
#X connect 9 0 1 0;
