#N canvas 857 247 587 604 10;
#X obj 45 196 mtx_knobs 4 4 -1 1;
#X obj 202 62 osc~ 0.1;
#X obj 262 62 osc~ 0.2;
#X obj 322 62 osc~ 0.3;
#X obj 382 62 osc~ 0.4;
#X obj 202 175 snake~ in 16;
#X msg 473 67 0.25;
#X msg 473 88 0.5;
#X msg 473 109 0.75;
#X obj 473 46 loadbang;
#X obj 283 180 bng 16 250 50 0 empty empty empty 0 -8 0 10 #fcfcfc #000000 #000000;
#X listbox 202 365 53 0 0 0 - - - 0;
#X obj 45 414 show~ -width 152 -height 0 -scale 5 -interval 500;
#X obj 45 175 snake~ in 4;
#X obj 212 83 osc~ 0.2;
#X obj 272 83 osc~ 0.3;
#X obj 332 83 osc~ 0.4;
#X obj 392 83 osc~ 0.1;
#X obj 402 104 osc~ 0.2;
#X obj 412 125 osc~ 0.3;
#X obj 342 104 osc~ 0.1;
#X obj 352 125 osc~ 0.2;
#X obj 282 104 osc~ 0.4;
#X obj 292 125 osc~ 0.1;
#X obj 222 104 osc~ 0.3;
#X obj 232 125 osc~ 0.4;
#X obj 45 62 osc~ 0.1;
#X obj 66 83 osc~ 0.2;
#X obj 87 104 osc~ 0.3;
#X obj 108 125 osc~ 0.4;
#X connect 0 0 12 0;
#X connect 0 1 11 0;
#X connect 1 0 5 0;
#X connect 2 0 5 4;
#X connect 3 0 5 8;
#X connect 4 0 5 12;
#X connect 5 0 0 1;
#X connect 6 0 14 1;
#X connect 6 0 15 1;
#X connect 6 0 16 1;
#X connect 6 0 17 1;
#X connect 7 0 18 1;
#X connect 7 0 20 1;
#X connect 7 0 22 1;
#X connect 7 0 24 1;
#X connect 8 0 19 1;
#X connect 8 0 21 1;
#X connect 8 0 23 1;
#X connect 8 0 25 1;
#X connect 9 0 6 0;
#X connect 9 0 8 0;
#X connect 9 0 7 0;
#X connect 10 0 0 1;
#X connect 13 0 0 0;
#X connect 14 0 5 1;
#X connect 15 0 5 5;
#X connect 16 0 5 9;
#X connect 17 0 5 13;
#X connect 18 0 5 14;
#X connect 19 0 5 15;
#X connect 20 0 5 10;
#X connect 21 0 5 11;
#X connect 22 0 5 6;
#X connect 23 0 5 7;
#X connect 24 0 5 2;
#X connect 25 0 5 3;
#X connect 26 0 13 0;
#X connect 27 0 13 1;
#X connect 28 0 13 2;
#X connect 29 0 13 3;
