#N canvas 331 155 1446 657 10;
#X obj 1167 593 outlet;
#X obj 1167 552 list;
#N canvas 251 278 530 654 \$0-show 0;
#X coords 0 1 1 0 92 92 2 40 40;
#X restore 40 40 pd \$0-show;
#X obj 752 444 s pd-\$0-show;
#X obj 469 216 *;
#X obj 469 154 f \$1;
#X obj 507 154 f \$2;
#X obj 469 175 max 2;
#X obj 507 175 max 2;
#X obj 457 90 array define \$0-values;
#X obj 439 34 loadbang;
#X obj 611 154 s \$0-reset;
#X obj 759 402 r \$0-reset;
#X msg 759 423 clear;
#X obj 849 159 pack;
#X obj 786 76 t f f f, f 11;
#X obj 507 195 t f f;
#X obj 469 195 t f f;
#X obj 849 281 s pd-\$0-show;
#X obj 496 216 s \$0-ins;
#X obj 552 216 s \$0-outs;
#X obj 881 55 r \$0-outs;
#X obj 786 55 r \$0-ins;
#X obj 933 465 array size \$0-values;
#X obj 469 237 s \$0-knobs;
#X obj 847 402 r \$0-knobs;
#X obj 752 96 r \$0-knobs;
#X obj 1151 117 array set \$0-values;
#X obj 1167 531 array get \$0-values;
#X obj 359 34 inlet~;
#X obj 359 516 outlet~;
#X obj 1124 138 s \$0-setvalue;
#X obj 1124 96 t b l;
#N canvas 364 225 984 828 \$0-matrix 0;
#X restore 359 283 pd \$0-matrix;
#X obj 366 195 r \$0-ins;
#X obj 847 507 s pd-\$0-knobs-helper;
#N canvas 5 477 856 600 \$0-knobs-helper 1;
#X obj 100 100 clone mtx_knobs-helper.cl 4 1155 0 1;
#X restore 847 528 pd \$0-knobs-helper;
#X obj 359 237 s~ \$0-input;
#X msg 366 216 channels \$1;
#N canvas 1153 531 649 515 patch_matrix 0;
#X obj 49 59 t b b b;
#X obj 49 104 f;
#X obj 65 84 r \$0-knobs;
#X obj 251 148 r \$0-ins;
#X obj 307 148 r \$0-outs;
#X obj 49 38 inlet;
#X obj 144 211 + 300;
#X obj 107 190 * 160;
#X obj 107 211 + 100;
#X obj 49 372 s pd-\$0-matrix;
#X obj 176 190 + 4;
#X obj 219 148 f \$0;
#X obj 219 190 pack f f f;
#X obj 49 145 t f f f f;
#X obj 110 125 r \$0-ins;
#X obj 68 166 mod;
#X obj 94 166 div;
#X obj 144 190 * 40;
#X msg 49 280 obj \$4 \$5 mtx-node \$1 \$7 \, connect 1 \$2 \$6 0 \, connect \$6 0 2 \$3, f 25;
#X msg 219 211 clear \, obj 100 60 r~ \$1-input \, obj 100 100 snake~ out \$2 \, obj 100 700 snake~ in \$3 \, obj 100 750 s~ \$1-output \$3 \, connect 0 0 1 0 \, connect 2 0 3 0, f 43;
#N canvas 63 88 450 300 loop 0;
#X obj 48 45 inlet;
#X obj 48 206 f;
#X obj 74 206 + 1;
#X obj 48 107 t f b;
#X msg 85 127 0;
#X obj 48 127 until;
#X obj 48 226 outlet;
#X connect 0 0 3 0;
#X connect 1 0 2 0;
#X connect 1 0 6 0;
#X connect 2 0 1 1;
#X connect 3 0 5 0;
#X connect 3 1 4 0;
#X connect 4 0 1 1;
#X connect 5 0 1 0;
#X restore 49 125 pd loop;
#X obj 49 234 pack f f f f f f \$0;
#X text 273 294 \$1 index \; \$2 in \; \$3 out \; \$4 x \; \$5 y \; \$6 obj index \; \$7 \$0 \;;
#X connect 0 0 1 0;
#X connect 0 2 11 0;
#X connect 1 0 20 0;
#X connect 2 0 1 1;
#X connect 3 0 12 1;
#X connect 4 0 12 2;
#X connect 5 0 0 0;
#X connect 6 0 21 4;
#X connect 7 0 8 0;
#X connect 8 0 21 3;
#X connect 10 0 21 5;
#X connect 11 0 12 0;
#X connect 12 0 19 0;
#X connect 13 0 21 0;
#X connect 13 1 15 0;
#X connect 13 2 16 0;
#X connect 13 3 10 0;
#X connect 14 0 15 1;
#X connect 14 0 16 1;
#X connect 15 0 7 0;
#X connect 15 0 21 1;
#X connect 16 0 17 0;
#X connect 16 0 21 2;
#X connect 17 0 6 0;
#X connect 18 0 9 0;
#X connect 19 0 9 0;
#X connect 20 0 13 0;
#X connect 21 0 18 0;
#X restore 453 283 pd patch_matrix;
#X obj 41 79 cnv 6 6 6 empty empty IN 0 4 0 8 #ffffff #404040 0;
#X obj 77 123 cnv 6 6 6 empty \$0-out-text OUT 0 4 0 8 #ffffff #404040 0;
#X text 940 56 cols;
#X text 755 56 rows;
#X obj 771 179 div;
#X obj 802 179 mod;
#X obj 41 86 cnv 6 6 6 empty empty → 1 4 0 14 #ffffff #404040 0;
#X obj 91 123 cnv 6 6 6 empty \$0-out-arrow ↓ 0 3 0 14 #ffffff #404040 0;
#X msg 849 251 coords 0 1 1 0 \$2 \$1 2 40 40;
#X obj 752 339 pack f f f \$0 0 1;
#X obj 541 154 f \$3;
#X obj 576 154 f \$4;
#X obj 576 175 sel 0;
#X obj 617 216 s \$0-low;
#X obj 673 216 s \$0-high;
#X obj 831 310 r \$0-low;
#X obj 888 310 r \$0-high;
#X obj 847 423 t f f;
#X obj 847 465 pack f \$0 0 1;
#X msg 847 486 clear \, obj 100 100 clone mtx_knobs-helper.cl \$1 \$2 \$3 \$4;
#X obj 849 96 * 36;
#X obj 881 96 * 36;
#X obj 771 200 * 36;
#X obj 802 200 * 36;
#X obj 771 220 + 52;
#X obj 802 220 + 52;
#X obj 849 117 + 20;
#X obj 881 117 + 20;
#X obj 1090 34 inlet~;
#N canvas 63 88 686 492 loop 0;
#X obj 48 45 inlet;
#X obj 48 206 f;
#X obj 74 206 + 1;
#X obj 48 107 t f b;
#X msg 85 127 0;
#X obj 48 127 until;
#X obj 48 226 outlet;
#X connect 0 0 3 0;
#X connect 1 0 2 0;
#X connect 1 0 6 0;
#X connect 2 0 1 1;
#X connect 3 0 5 0;
#X connect 3 1 4 0;
#X connect 4 0 1 1;
#X connect 5 0 1 0;
#X restore 752 117 pd loop;
#X msg 752 360 obj \$2 \$3 else/knob -size 32 -range \$5 \$6 -bgcolor #ffffff -angle 360 -send \$4-ks\$1 -receive \$4-kr\$1 -noarc -nosquare;
#X obj 752 138 t f f f;
#X msg 458 379 set \$1-output;
#X obj 458 358 f \$0;
#X msg 1124 191 resize \$1;
#X obj 1124 170 r \$0-knobs;
#X obj 439 125 t b b b b b b b;
#X obj 929 280 s \$0-canvas;
#X obj 39 19 namecanvas \$0-canvas;
#X obj 1090 223 clone -di mtx_knobs/mtx-knob-coefftocontrol.cl 1 \$0;
#X obj 1124 75 route list bang;
#X obj 1292 75 nchans~;
#X obj 1292 96 > 1;
#X obj 1292 117 s \$0-mc-coeffs;
#X text 1301 595 Ben Wesch \, 2025;
#X obj 359 395 r~;
#X obj 439 337 t b b b;
#X msg 491 358 dsp 0;
#X msg 439 470 dsp 1;
#X obj 484 407 r pd-dsp-started;
#X obj 439 449 spigot 0;
#X msg 484 428 1;
#X obj 439 491 s pd;
#X obj 974 223 s \$0-out-arrow;
#X obj 886 223 s \$0-out-text;
#X msg 974 202 pos 91 \$1;
#X msg 886 202 pos 77 \$1;
#X obj 886 181 t a a;
#X obj 886 160 + 31;
#X obj 849 138 t a a;
#X connect 1 0 0 0;
#X connect 4 0 24 0;
#X connect 5 0 7 0;
#X connect 6 0 8 0;
#X connect 7 0 17 0;
#X connect 8 0 16 0;
#X connect 10 0 76 0;
#X connect 12 0 13 0;
#X connect 13 0 3 0;
#X connect 14 0 48 0;
#X connect 15 0 44 1;
#X connect 15 1 45 1;
#X connect 15 2 60 0;
#X connect 16 0 4 1;
#X connect 16 1 20 0;
#X connect 17 0 4 0;
#X connect 17 1 19 0;
#X connect 21 0 61 0;
#X connect 22 0 15 0;
#X connect 25 0 57 0;
#X connect 26 0 69 0;
#X connect 28 0 1 0;
#X connect 29 0 37 0;
#X connect 32 0 31 0;
#X connect 32 1 27 0;
#X connect 34 0 38 0;
#X connect 38 0 37 0;
#X connect 44 0 62 0;
#X connect 45 0 63 0;
#X connect 48 0 18 0;
#X connect 48 0 77 0;
#X connect 49 0 70 0;
#X connect 50 0 53 0;
#X connect 51 0 52 0;
#X connect 52 1 54 0;
#X connect 55 0 49 4;
#X connect 55 0 58 2;
#X connect 56 0 49 5;
#X connect 56 0 58 3;
#X connect 57 0 58 0;
#X connect 57 1 23 0;
#X connect 58 0 59 0;
#X connect 59 0 35 0;
#X connect 60 0 66 0;
#X connect 61 0 67 0;
#X connect 62 0 64 0;
#X connect 63 0 65 0;
#X connect 64 0 49 1;
#X connect 65 0 49 2;
#X connect 66 0 99 0;
#X connect 67 0 14 1;
#X connect 68 0 81 0;
#X connect 68 0 79 0;
#X connect 68 1 80 0;
#X connect 69 0 71 0;
#X connect 70 0 3 0;
#X connect 71 0 49 0;
#X connect 71 1 44 0;
#X connect 71 2 45 0;
#X connect 72 0 85 0;
#X connect 73 0 72 0;
#X connect 74 0 79 0;
#X connect 75 0 74 0;
#X connect 76 0 86 0;
#X connect 76 1 39 0;
#X connect 76 2 5 0;
#X connect 76 3 6 0;
#X connect 76 4 50 0;
#X connect 76 5 51 0;
#X connect 76 6 11 0;
#X connect 80 0 32 0;
#X connect 80 1 28 0;
#X connect 81 0 82 0;
#X connect 82 0 83 0;
#X connect 85 0 30 0;
#X connect 86 0 90 0;
#X connect 86 1 73 0;
#X connect 86 2 87 0;
#X connect 87 0 92 0;
#X connect 88 0 92 0;
#X connect 89 0 91 0;
#X connect 90 0 88 0;
#X connect 91 0 90 1;
#X connect 95 0 93 0;
#X connect 96 0 94 0;
#X connect 97 0 96 0;
#X connect 97 1 95 0;
#X connect 98 0 97 0;
#X connect 99 0 14 0;
#X connect 99 1 98 0;
#X coords 0 1 1 0 92 92 2 40 40;
