#N canvas 302 176 548 555 10;
#X obj 173 307 * 255;
#X msg 53 451 bgcolor \$1;
#X obj 53 492 s \$2-kr\$1;
#X obj 120 86 array set \$2-values \$1;
#X obj 53 307 * 255;
#X obj 53 181 clip 0 1;
#X obj 173 181 clip 0 1;
#X obj 53 160 / \$3;
#X obj 173 160 / \$4;
#X obj 53 70 t f f f;
#X obj 222 307 * 255;
#X obj 110 307 * 255;
#X obj 53 202 t f f;
#X obj 173 202 t f f;
#X obj 222 328 t f f;
#X obj 222 223 * -1;
#X obj 222 244 + 1;
#X obj 53 328 t f f;
#X obj 53 223 * -1;
#X obj 53 244 + 1;
#X obj 53 388 max;
#X obj 110 388 max;
#X obj 80 388 min;
#X obj 53 409 pack f f f;
#X obj 173 265 pow 2;
#X obj 222 265 pow 0.5;
#X obj 110 265 pow 2;
#X obj 53 265 pow 0.5;
#X obj 53 49 r \$2-ks\$1;
#X obj 281 65 r \$2-setvalue;
#X obj 281 86 array get \$2-values \$1 1;
#N canvas 179 204 366 330 rgb2hex 0;
#X obj 206 113 makefilename %02x;
#X obj 132 134 makefilename %02x;
#X obj 59 155 makefilename %02x;
#X msg 59 197 symbol #\$1\$2\$3;
#X obj 59 176 pack symbol symbol symbol;
#X obj 59 45 inlet;
#X obj 59 261 outlet;
#X obj 59 97 unpack f f f;
#X connect 0 0 4 2;
#X connect 1 0 4 1;
#X connect 2 0 4 0;
#X connect 3 0 6 0;
#X connect 4 0 3 0;
#X connect 5 0 7 0;
#X connect 7 0 2 0;
#X connect 7 1 1 0;
#X connect 7 2 0 0;
#X restore 53 430 pd rgb2hex;
#X connect 0 0 20 1;
#X connect 1 0 2 0;
#X connect 4 0 17 0;
#X connect 5 0 12 0;
#X connect 6 0 13 0;
#X connect 7 0 5 0;
#X connect 8 0 6 0;
#X connect 9 0 7 0;
#X connect 9 1 8 0;
#X connect 9 2 3 0;
#X connect 10 0 14 0;
#X connect 11 0 21 0;
#X connect 12 0 18 0;
#X connect 12 1 26 0;
#X connect 13 0 24 0;
#X connect 13 1 15 0;
#X connect 14 0 22 1;
#X connect 14 1 21 1;
#X connect 15 0 16 0;
#X connect 16 0 25 0;
#X connect 17 0 20 0;
#X connect 17 1 22 0;
#X connect 18 0 19 0;
#X connect 19 0 27 0;
#X connect 20 0 23 0;
#X connect 21 0 23 2;
#X connect 22 0 23 1;
#X connect 23 0 31 0;
#X connect 24 0 0 0;
#X connect 25 0 10 0;
#X connect 26 0 11 0;
#X connect 27 0 4 0;
#X connect 28 0 9 0;
#X connect 29 0 30 0;
#X connect 30 0 2 0;
#X connect 31 0 1 0;
